<?xml version="1.0" standalone="no"?>
<!DOCTYPE svg PUBLIC "-//W3C//DTD SVG 1.1//EN" "http://www.w3.org/Graphics/SVG/1.1/DTD/svg11.dtd" >
<svg xmlns="http://www.w3.org/2000/svg" xmlns:xlink="http://www.w3.org/1999/xlink" version="1.1">
<metadata></metadata>
<defs>
<font id="nueva_fuenteregular" horiz-adv-x="1228" >
<font-face units-per-em="2048" ascent="1638" descent="-410" />
<missing-glyph horiz-adv-x="500" />
<glyph horiz-adv-x="0" />
<glyph horiz-adv-x="682" />
<glyph unicode=" " />
<glyph unicode="A" d="M1229 113l-113 -113l-502 502l-501 -502l-113 113l504 501l-504 502l113 113l501 -502l504 502l111 -113l-502 -502z" />
<glyph unicode="B" horiz-adv-x="2048" d="M2048 1229v-205h-2048v205h2048zM2048 717v-205h-2048v205h2048zM2048 205v-205h-2048v205h2048z" />
<glyph unicode="C" d="M1209.5 1208.5q19.5 -20.5 19.5 -47.5v-1095q0 -27 -19.5 -46.5t-46.5 -19.5h-313v471h158l24 191h-182v116q0 47 21.5 69.5t66.5 22.5h100v164q-66 8 -141 8q-113 0 -176.5 -65.5t-63.5 -179.5v-135h-161v-191h161v-471h-589q-27 0 -47.5 19.5t-20.5 46.5v1095 q0 27 20.5 47.5t47.5 20.5h1095q27 0 46.5 -20.5z" />
<glyph unicode="D" d="M1229 0h-1229v1229h1229v-1229zM1065 854q-49 -20 -94 -27q53 35 71 93q-49 -31 -104 -39q-51 51 -123 51q-70 0 -118 -48t-48 -118q0 -25 2 -37q-102 4 -192 50t-152 122q-25 -43 -24 -82q0 -92 67 -139q-47 4 -86 20v-2q0 -59 42 -105t102 -56q-18 -6 -33 -7 q-20 0 -31 2q16 -49 59 -80.5t97 -33.5q-92 -72 -207 -72l-39 2q115 -74 254 -74q145 0 253.5 70t165 179.5t56.5 224.5v20q53 39 82 86z" />
<glyph unicode="E" horiz-adv-x="790" d="M0 0l791 614l-791 615v-1229z" />
<glyph unicode="F" horiz-adv-x="778" d="M778 164l-164 -164l-614 614l614 615l164 -164l-450 -451z" />
<glyph unicode="G" horiz-adv-x="778" d="M0 164l164 -164l614 614l-614 615l-164 -164l451 -451z" />
<glyph unicode="H" horiz-adv-x="1712" d="M76 666q37 -76 102.5 -126.5t147.5 -66.5q-41 -12 -93 -12l-69 6q35 -111 126 -177.5t208 -66.5q-104 -78 -199.5 -113.5t-206.5 -35.5l-92 4q135 -84 256 -121t262 -37q502 0 801 377q106 137 162.5 298t56.5 327q0 37 -4 45q88 61 178 182q-94 -45 -205 -55 q113 70 158 194q-109 -61 -227 -84q-111 113 -260 113q-96 0 -179 -47q-82 -49 -131 -132t-49 -175q0 -49 8 -80q-211 8 -405.5 105t-329.5 261q-51 -78 -51 -176q0 -184 164 -293q-94 6 -166 45v-6q0 -81 37 -153z" />
<glyph unicode="I" horiz-adv-x="2416" d="M2367.5 1157q18.5 -6 34 -26.5t15.5 -59.5v-700q0 -39 -15.5 -59.5t-34 -26.5t-18.5 -4h-80q-37 0 -66.5 12t-46 25.5t-20.5 17.5l-227 199v-431q-6 -45 -41 -74.5t-80 -29.5h-432q-57 0 -84 9t-38 23.5t-48 69.5q-45 63 -150 64q-12 0 -20 -1t-10 -1h-560q-94 0 -133 67 v455h-135l-14 2l-6 -6q-2 -2 -11.5 -10t-26 -15.5t-36.5 -7.5h-47q-2 0 -11.5 3t-17.5 14.5t-8 33.5v396q0 23 8 34t17.5 14t11.5 3h47q29 0 51.5 -13.5t22.5 -17.5l12 -10h143q0 51 36 87t87 36h1352q45 0 80 -31t41 -76v-215l227 199q4 4 20.5 17.5t46 25.5t66.5 12h80 q0 2 18.5 -4zM1284 880.5q-33 34.5 -80 34.5h-506q-47 0 -79.5 -34.5t-32.5 -83.5v-203q0 -47 33.5 -82t78.5 -35h506q45 0 79 35t34 82v203q0 49 -33 83.5zM869.5 771q29.5 -30 29.5 -73q0 -41 -29.5 -70.5t-72.5 -29.5q-41 0 -72 29.5t-31 70.5q0 43 31 73t72 30 q43 0 72.5 -30zM1175.5 771q30.5 -30 30.5 -73q0 -41 -30.5 -70.5t-71.5 -29.5q-43 0 -73 29.5t-30 70.5q0 43 30 73t73 30q41 0 71.5 -30z" />
<glyph unicode="J" horiz-adv-x="1683" d="M1073 1193q33 36 78 36h223q45 0 79 -36t34 -77h86q47 0 78.5 -31.5t31.5 -78.5v-895q0 -45 -31.5 -78t-78.5 -33h-1460q-47 0 -80 33t-33 78v895q0 45 33 77.5t80 32.5h84q0 41 32.5 77t77.5 36h29q45 0 77.5 -36t32.5 -77h594q0 41 33 77zM1041.5 187.5 q91.5 54.5 145.5 145.5t54 199q0 109 -54 201t-145.5 146.5t-199.5 54.5q-109 0 -201 -54.5t-146.5 -146.5t-54.5 -201t54.5 -199.5t146.5 -145t201 -54.5q108 0 199.5 54.5zM382 763.5q24 24.5 24 57.5q0 35 -24 58.5t-58 23.5q-33 0 -57.5 -23.5t-24.5 -58.5 q0 -33 24.5 -57.5t57.5 -24.5q34 0 58 24.5zM973.5 761q60.5 -36 95.5 -96.5t35 -132.5q0 -109 -77 -185.5t-185 -76.5q-72 0 -132.5 35t-96 95.5t-35.5 131.5q0 72 35.5 132.5t96 96.5t132.5 36q71 0 131.5 -36z" />
<glyph unicode="K" horiz-adv-x="1939" d="M258 0l-258 258l969 971l970 -971l-258 -258l-712 711z" />
<glyph unicode="L" horiz-adv-x="1402" d="M0 412q0 -199 75 -305.5t214 -106.5q106 0 173.5 68.5t67.5 183.5q0 109 -71.5 171t-169.5 62q-29 0 -41 -4q0 188 83 318.5t265 249.5l-111 180q-485 -285 -485 -817zM807 412q0 -199 74.5 -305.5t214.5 -106.5q106 0 173.5 68.5t67.5 183.5q0 109 -69.5 171t-171.5 62 q-29 0 -41 -4q0 188 84 318.5t264 249.5l-107 180q-489 -282 -489 -817z" />
<glyph unicode="M" horiz-adv-x="1404" d="M598 815q0 199 -76 306.5t-213 107.5q-109 0 -176 -68.5t-67 -185.5q0 -109 70.5 -171.5t172.5 -62.5q27 0 41 4q0 -188 -84 -318t-264 -249l104 -178q492 278 492 815zM1405 815q0 199 -76 306.5t-213 107.5q-109 0 -176.5 -68.5t-67.5 -185.5q0 -106 72 -170t172 -64 q27 0 41 4q0 -188 -83 -318t-265 -249l111 -178q485 280 485 815z" />
<glyph unicode="N" horiz-adv-x="1638" d="M1231 1329q190 -111 298.5 -300t108.5 -411q0 -215 -108 -407q-111 -190 -300.5 -301t-410.5 -111q-217 0 -407 111t-301 301t-111 407q0 221 111 412q109 190 298 299t410 109q219 0 412 -109zM1155 41q156 90 246 244.5t90 332.5t-90 336q-90 156 -247 246t-335 90 q-176 0 -332 -90q-158 -90 -249 -245.5t-91 -336.5q0 -176 91 -331q92 -154 248.5 -246t332.5 -92q178 0 336 92zM410 838q-12 0 -13 -19v-164q0 -8 6 -18l7 -2h22q18 0 31 12h41v-186q18 -29 55 -29h232l12 2q41 0 63 -24l6 -15l13 -16l6 -4l6 -6q4 0 6 -1t4 -1h115 q20 0 33 12q16 6 16 31v176l82 -82l6 -4q6 -6 22.5 -12.5t28.5 -6.5h31l6 2q10 0 15 11q6 6 8 26v289q0 20 -13 29l-6 4q-2 0 -4 1t-6 1h-31q-35 0 -51 -17q-6 0 -6 -6l-82 -82v88q0 14 -16 35q-23 12 -33 12h-469q-18 0 -32.5 -14t-16.5 -39h-35l-6 4l-4 2l-13 11l-14 4 h-18zM629 575q-12 23 -13 37v82q0 16 13 37q12 12 33 12h210q18 0 32 -13t14 -36v-82q0 -23 -13.5 -36t-32.5 -13h-210q-21 0 -33 12zM662 655q0 -20 11 -31.5t32 -11.5q18 0 30.5 11.5t12.5 31.5t-13 29q-12 12 -30 12t-29 -12q-14 -11 -14 -29zM791 655q0 -18 11 -30.5 t27 -12.5q43 0 43 43q0 41 -43 41q-16 0 -28 -12q-10 -11 -10 -29z" />
<glyph unicode="O" horiz-adv-x="1638" d="M1231 1329q190 -111 298.5 -300t108.5 -411q0 -215 -108 -407q-111 -190 -300.5 -301t-410.5 -111q-217 0 -407 111t-301 301t-111 407q0 221 111 412q109 190 298 299t410 109q219 0 412 -109zM1155 41q156 90 246 244.5t90 332.5t-90 336q-90 156 -247 246t-335 90 q-176 0 -332 -90q-158 -90 -249 -245.5t-91 -336.5q0 -176 91 -331q92 -154 248.5 -246t332.5 -92q178 0 336 92zM469 821q-12 -20 -12 -37v-381q0 -12 12 -34q12 -12 35 -13h631q23 0 34 13q12 23 13 34v381q0 16 -13 37q-12 12 -34 13h-37q0 12 -4 20q-2 4 -23 25 q-8 6 -22 6h-95q-23 0 -43 -27q-8 -10 -8 -24h-254q0 27 -26 45q-12 6 -23 6h-10q-2 0 -23 -8q-18 -10 -22 -17.5t-4 -25.5h-37q-23 -1 -35 -13zM645 586q0 98 88 147q41 23 86 23q47 0 89 -24.5t59 -59.5q23 -39 22 -86q0 -51 -19.5 -85t-66.5 -67q-57 -23 -84 -22 q-25 0 -88 22q-41 23 -61 64q-25 35 -25 88zM559 707q0 37 37 36q33 0 33 -36q0 -14 -9.5 -23.5t-23.5 -9.5q-12 0 -27 10q-10 11 -10 23zM738.5 503q31.5 -32 80.5 -32q35 0 58 16q55 31 55 99q0 31 -14 55q-31 55 -99 55q-18 0 -59 -12q-51 -37 -55 -98q2 -51 33.5 -83z " />
<glyph unicode="P" />
<glyph unicode="Q" />
<glyph unicode="R" />
<glyph unicode="S" />
<glyph unicode="T" />
<glyph unicode="U" />
<glyph unicode="V" />
<glyph unicode="W" />
<glyph unicode="X" />
<glyph unicode="Y" />
<glyph unicode="Z" />
<glyph unicode="a" />
<glyph unicode="b" />
<glyph unicode="c" />
<glyph unicode="d" />
<glyph unicode="e" />
<glyph unicode="f" />
<glyph unicode="g" />
<glyph unicode="h" />
<glyph unicode="i" />
<glyph unicode="j" />
<glyph unicode="k" />
<glyph unicode="l" />
<glyph unicode="m" />
<glyph unicode="n" />
<glyph unicode="o" />
<glyph unicode="p" />
<glyph unicode="q" />
<glyph unicode="r" />
<glyph unicode="s" />
<glyph unicode="t" />
<glyph unicode="u" />
<glyph unicode="v" />
<glyph unicode="w" />
<glyph unicode="x" />
<glyph unicode="y" />
<glyph unicode="z" />
<glyph unicode="&#xa0;" />
<glyph unicode="&#x2000;" horiz-adv-x="719" />
<glyph unicode="&#x2001;" horiz-adv-x="1438" />
<glyph unicode="&#x2002;" horiz-adv-x="719" />
<glyph unicode="&#x2003;" horiz-adv-x="1438" />
<glyph unicode="&#x2004;" horiz-adv-x="479" />
<glyph unicode="&#x2005;" horiz-adv-x="359" />
<glyph unicode="&#x2006;" horiz-adv-x="239" />
<glyph unicode="&#x2007;" horiz-adv-x="239" />
<glyph unicode="&#x2008;" horiz-adv-x="179" />
<glyph unicode="&#x2009;" horiz-adv-x="287" />
<glyph unicode="&#x200a;" horiz-adv-x="79" />
<glyph unicode="&#x202f;" horiz-adv-x="287" />
<glyph unicode="&#x205f;" horiz-adv-x="359" />
<glyph unicode="&#x25fc;" horiz-adv-x="1024" d="M0 0v0v0v0v0z" />
</font>
</defs>
</svg>
